<svg xmlns="http://www.w3.org/2000/svg" viewBox="0 0 472 82"><defs><style>.cls-1{fill:#fff;}.cls-2{fill:#0043ce;stroke:#0043ce;stroke-miterlimit:10;}.cls-3{fill:none;stroke:#fff;stroke-linejoin:round;stroke-width:3px;}</style></defs><title>Banner_1</title><g id="Layer_2" data-name="Layer 2"><g id="Layer_1-2" data-name="Layer 1"><rect class="cls-1" width="472" height="82"/><path class="cls-2" d="M1.5,1.5V81H41.3c2.7-.1,17.7-.8,29.1-13.2A41.6,41.6,0,0,0,81,41.3V1.5Z"/><path class="cls-3" d="M30.2,27.6H19.4V16.7H30.2Zm35.6,6.9H54.9V45.3H65.8ZM48,52.3H37.2V63.1H48ZM39.5,16.7V27.6l9.3-5.5Zm3.1,17.8A5.4,5.4,0,1,0,48,39.9,5.4,5.4,0,0,0,42.6,34.5ZM60.4,16.7a5.5,5.5,0,1,0,5.4,5.4A5.5,5.5,0,0,0,60.4,16.7ZM24.8,52.3a5.4,5.4,0,1,0,5.4,5.4A5.4,5.4,0,0,0,24.8,52.3ZM60.4,27.6v6.9M48,39.9h6.9M42.6,45.3v7M30.2,22.1h9.3M28.6,53.9,38.8,43.7M48,59.2h6.2a6.1,6.1,0,0,0,6.2-6.1V45.3M24.8,27.6v6.1A6.2,6.2,0,0,0,31,39.9h6.2"/><path d="M109.6,37.6h.1l5.8-18h7.8V45.2h-5.9V28.7h-.1l-5.7,16.5h-4L102.1,29H102V45.2H96.1V19.6h7.7Z"/><path d="M148.7,34.7a13.6,13.6,0,0,1-.5,3.6,14,14,0,0,1-1.5,3l3.8,3.9-3.8,2.9L143,44.4a9.9,9.9,0,0,1-2.4.9,12.7,12.7,0,0,1-2.8.3,10.4,10.4,0,0,1-10.9-10.9V30.1a10.3,10.3,0,0,1,10.9-10.8,10.4,10.4,0,0,1,10.9,10.8Zm-6-4.6a7.3,7.3,0,0,0-1.3-4.5,4,4,0,0,0-3.6-1.8,4.3,4.3,0,0,0-3.7,1.8,8,8,0,0,0-1.3,4.5v4.6a8.1,8.1,0,0,0,1.3,4.6,4.9,4.9,0,0,0,7.4,0,8.1,8.1,0,0,0,1.2-4.6Z"/><path d="M170.1,24.2h-6.8v21h-6v-21h-6.6V19.6h19.4Z"/><path d="M190.6,24.2h-6.8v21h-6v-21h-6.6V19.6h19.4Z"/><path d="M95.2,60.8V51.6h2.6a4.5,4.5,0,0,1,1.6.3,5,5,0,0,1,1.2.8,3.9,3.9,0,0,1,.8,1.4,4.7,4.7,0,0,1,.3,1.7v.8a5.2,5.2,0,0,1-.3,1.8,3.5,3.5,0,0,1-.8,1.3,2.9,2.9,0,0,1-1.3.8,4.1,4.1,0,0,1-1.6.3Zm.8-8.5v7.9h1.7a3.2,3.2,0,0,0,1.4-.3l1-.7a3.9,3.9,0,0,0,.6-1.1,3.6,3.6,0,0,0,.2-1.5v-.8a3.6,3.6,0,0,0-.2-1.5,3.9,3.9,0,0,0-.6-1.1l-1-.7a3,3,0,0,0-1.3-.2Z"/><path d="M103.5,52c0-.2,0-.3.1-.4h.8c.1.1.1.2.1.4a.4.4,0,0,1-.1.3.5.5,0,0,1-.8,0A.4.4,0,0,1,103.5,52Zm.9,8.8h-.8V54h.8Z"/><path d="M110.5,59.1v-.4l-.3-.4a.9.9,0,0,0-.6-.4l-.9-.3-1-.2-.8-.4-.4-.6a1.4,1.4,0,0,1-.2-.7,1.9,1.9,0,0,1,.2-.7,1.3,1.3,0,0,1,.5-.6l.7-.4,1-.2,1.1.2a2,2,0,0,1,.8.4,1.8,1.8,0,0,1,.5.7,1.9,1.9,0,0,1,.2.8h-.8a.7.7,0,0,0-.1-.5l-.4-.5-.5-.3H108l-.5.3c-.2.1-.3.2-.3.4s-.1.2-.1.4v.4l.3.4a.8.8,0,0,0,.6.2l.9.3,1.1.3.7.5a1.2,1.2,0,0,1,.5.5,1.9,1.9,0,0,1,.1.8,1.9,1.9,0,0,1-.2.7,1,1,0,0,1-.5.6,2,2,0,0,1-.8.4l-1,.2-1.2-.2-.8-.5a1.3,1.3,0,0,1-.5-.6,1.2,1.2,0,0,1-.2-.8h.7c.1.3.1.5.3.7a.8.8,0,0,0,.4.4l.6.3h1.4a.7.7,0,0,0,.6-.3c.1-.1.3-.2.3-.3A1.1,1.1,0,0,0,110.5,59.1Z"/><path d="M114.2,52.2V54h1.4v.6h-1.4v4.6a.7.7,0,0,0,.1.5.5.5,0,0,0,.2.4c0,.1.1.1.2.2h1v.7h-1.4l-.5-.3a3.3,3.3,0,0,1-.3-.6c0-.2-.1-.5-.1-.8V54.6h-1.2V54h1.2V52.2Z"/><path d="M120.4,54.6h-1.3l-.5.3a1,1,0,0,0-.4.5l-.3.6v4.7h-.7V54h.7v1.1a2.4,2.4,0,0,1,.8-.9,1.6,1.6,0,0,1,1.2-.4h.5Z"/><path d="M121.5,52a.5.5,0,0,1,.2-.4h.7a.5.5,0,0,1,.2.4c0,.1-.1.2-.2.3a.5.5,0,0,1-.4.2l-.3-.2C121.6,52.2,121.5,52.1,121.5,52Zm.9,8.8h-.7V54h.7Z"/><path d="M130,57.5a5.9,5.9,0,0,1-.2,1.4,3.7,3.7,0,0,1-.5,1.1,2.7,2.7,0,0,1-.8.7,2,2,0,0,1-1.1.3,2.5,2.5,0,0,1-1.3-.3,2.4,2.4,0,0,1-.9-.8v.9h-.7V51.1h.7V55a2.6,2.6,0,0,1,.9-.9,2.5,2.5,0,0,1,1.3-.3,2,2,0,0,1,1.1.3,2.7,2.7,0,0,1,.8.7,3.7,3.7,0,0,1,.5,1.1,5.9,5.9,0,0,1,.2,1.4Zm-.8-.2a4.1,4.1,0,0,0-.1-1.1,3.2,3.2,0,0,0-.3-.9l-.7-.6-.9-.2h-.7l-.6.3-.4.5-.3.5V59l.3.5a1,1,0,0,0,.5.4l.5.3h.7l.9-.2.7-.6.3-.9a4.1,4.1,0,0,0,.1-1.1Z"/><path d="M136.1,60a2.2,2.2,0,0,1-.9.7,2.5,2.5,0,0,1-1.3.3l-.9-.2-.7-.4a2.2,2.2,0,0,1-.5-.8,4.9,4.9,0,0,1-.1-1.2V54h.7v4.4c0,.3.1.7.1.9a2.1,2.1,0,0,0,.4.6l.5.3h1.4l.6-.3.4-.4.3-.6V54h.7v6.8h-.7Z"/><path d="M140,52.2V54h1.4v.6H140v4.6a.7.7,0,0,0,.1.5.5.5,0,0,0,.2.4l.3.2h.9v.7h-1.4l-.4-.3a.7.7,0,0,1-.3-.6,1.9,1.9,0,0,1-.2-.8V54.6H138V54h1.2V52.2Z"/><path d="M145.7,61a2.8,2.8,0,0,1-1.3-.3l-1-.7a5.4,5.4,0,0,1-.6-1.1,5.1,5.1,0,0,1-.2-1.3v-.3a5.9,5.9,0,0,1,.2-1.4,4.1,4.1,0,0,1,.7-1.1,2.2,2.2,0,0,1,.9-.7,2.3,2.3,0,0,1,1.1-.3,2.4,2.4,0,0,1,1.2.3,1.6,1.6,0,0,1,.8.6,3.3,3.3,0,0,1,.6,1,5.3,5.3,0,0,1,.1,1.3v.5h-4.9a4.3,4.3,0,0,0,.2,1.1,2.2,2.2,0,0,0,.5.8,1.3,1.3,0,0,0,.7.6l1,.2,1.1-.2a2.7,2.7,0,0,0,.8-.7l.5.3-.4.5-.5.4-.7.3Zm-.2-6.5a1.2,1.2,0,0,0-.8.2l-.6.4a2.2,2.2,0,0,0-.5.8,2.4,2.4,0,0,0-.2.9h4.1a2.4,2.4,0,0,0-.2-.8,1.5,1.5,0,0,0-.3-.7l-.6-.5A1.5,1.5,0,0,0,145.5,54.5Z"/><path d="M154.1,51.6l3.4,8.1,3.4-8.1H162v9.2h-.8V52.7l-3.4,8.1h-.6l-3.4-8.1v8.1h-.7V51.6Z"/><path d="M166.8,61a2.8,2.8,0,0,1-1.3-.3,3.1,3.1,0,0,1-.9-.7,3,3,0,0,1-.7-1.1,5.1,5.1,0,0,1-.2-1.3v-.3a5.9,5.9,0,0,1,.2-1.4,4.1,4.1,0,0,1,.7-1.1l.9-.7a2.3,2.3,0,0,1,1.1-.3,2.1,2.1,0,0,1,1.2.3,2.4,2.4,0,0,1,.9.6,3.1,3.1,0,0,1,.5,1,5.1,5.1,0,0,1,.2,1.3v.5h-4.9a4.1,4.1,0,0,0,.1,1.1,2.2,2.2,0,0,0,.5.8,1.6,1.6,0,0,0,.8.6l.9.2,1.1-.2a2.7,2.7,0,0,0,.8-.7l.5.3a2.9,2.9,0,0,1-.9.9l-.7.3Zm-.2-6.5a1.3,1.3,0,0,0-.8.2l-.6.4a2.2,2.2,0,0,0-.5.8,2.4,2.4,0,0,0-.2.9h4.1c0-.3-.1-.5-.1-.8a1.6,1.6,0,0,0-.4-.7l-.6-.5A1.3,1.3,0,0,0,166.6,54.5Z"/><path d="M175,59.1c0-.2-.1-.3-.1-.4l-.3-.4a.9.9,0,0,0-.6-.4l-.9-.3-1-.2-.8-.4a2.1,2.1,0,0,1-.4-.6,1.4,1.4,0,0,1-.2-.7,1.9,1.9,0,0,1,.2-.7l.5-.6.7-.4,1-.2,1.1.2a2,2,0,0,1,.8.4,1.8,1.8,0,0,1,.5.7,1.9,1.9,0,0,1,.2.8h-.8a.7.7,0,0,0-.1-.5l-.3-.5-.6-.3h-1.5l-.5.3c-.2.1-.3.2-.3.4s-.1.2-.1.4v.4l.3.4a1.1,1.1,0,0,0,.6.2l.9.3,1.1.3.7.5a1.2,1.2,0,0,1,.5.5,1.9,1.9,0,0,1,.1.8,1,1,0,0,1-.2.7,1,1,0,0,1-.5.6,2,2,0,0,1-.8.4l-1,.2-1.2-.2-.8-.5-.5-.6a1.2,1.2,0,0,1-.2-.8h.8a.8.8,0,0,0,.2.7.8.8,0,0,0,.4.4l.6.3h1.4a.7.7,0,0,0,.6-.3c.1-.1.3-.2.3-.3A1.7,1.7,0,0,0,175,59.1Z"/><path d="M181.5,59.1v-.4l-.3-.4a.9.9,0,0,0-.6-.4l-.9-.3-1-.2-.8-.4a2.1,2.1,0,0,1-.4-.6,1.4,1.4,0,0,1-.2-.7,1.9,1.9,0,0,1,.2-.7,1.3,1.3,0,0,1,.5-.6l.7-.4,1-.2,1.1.2a2,2,0,0,1,.8.4,1.8,1.8,0,0,1,.5.7,1.9,1.9,0,0,1,.2.8h-.8a.7.7,0,0,0-.1-.5l-.4-.5-.5-.3H179l-.6.3a.5.5,0,0,0-.2.4c-.1.1-.1.2-.1.4v.4l.3.4a.8.8,0,0,0,.6.2l.9.3,1.1.3.7.5a1.2,1.2,0,0,1,.5.5c0,.2.1.5.1.8a1.9,1.9,0,0,1-.2.7,1,1,0,0,1-.5.6,2,2,0,0,1-.8.4l-1,.2-1.2-.2-.8-.5a3.4,3.4,0,0,1-.6-.6,2.2,2.2,0,0,1-.1-.8h.7a6.4,6.4,0,0,0,.2.7l.5.4.6.3h1.4a.9.9,0,0,0,.6-.3l.3-.3A1.1,1.1,0,0,0,181.5,59.1Z"/><path d="M188.3,60.8a.8.8,0,0,0-.1-.4v-.5l-.4.4-.5.3-.7.3h-.7l-.9-.2c-.3-.1-.6-.2-.7-.4l-.5-.6a2.4,2.4,0,0,1-.2-.8,1.6,1.6,0,0,1,.3-.9,1.3,1.3,0,0,1,.6-.7l1-.4,1.3-.2h1.4v-.7a1.7,1.7,0,0,0-.5-1.2,1.7,1.7,0,0,0-1.3-.4h-.7l-.6.3-.4.4a1.3,1.3,0,0,0-.1.6h-.8a1.9,1.9,0,0,1,.2-.8l.5-.6a2.6,2.6,0,0,1,.9-.5l1-.2,1.1.2.7.4a2,2,0,0,1,.6.7,3.1,3.1,0,0,1,.1,1v3.3a.8.8,0,0,0,.1.4v.3c0,.2,0,.3.1.4a.4.4,0,0,0,.1.3h-.9Zm-2.3-.5h.7l.7-.3.5-.4.3-.6V57.4h-2.4l-.7.3c-.2.2-.4.3-.5.5a1.4,1.4,0,0,0-.2.6,1.3,1.3,0,0,0,.1.6l.3.4.5.3Z"/><path d="M190.7,57.3a6.1,6.1,0,0,1,.1-1.4,3.9,3.9,0,0,1,.6-1.1,2.7,2.7,0,0,1,.8-.7,2,2,0,0,1,1.1-.3,2.8,2.8,0,0,1,1.3.3,2.4,2.4,0,0,1,.8.9V54h.7v6.7a3.7,3.7,0,0,1-.2,1.2,1.5,1.5,0,0,1-.6.9,2.4,2.4,0,0,1-.8.6l-1.2.2h-.6l-.7-.2-.6-.4-.5-.5.5-.5a3.2,3.2,0,0,0,.9.8l1,.2h.9l.6-.5c.2-.1.3-.4.4-.6a3.1,3.1,0,0,0,.1-1v-.8a2,2,0,0,1-.8.8,2.8,2.8,0,0,1-1.3.3,2,2,0,0,1-1.1-.3,2.7,2.7,0,0,1-.8-.7,3.9,3.9,0,0,1-.6-1.1,6.1,6.1,0,0,1-.1-1.4Zm.7.2a4.3,4.3,0,0,0,.2,1.1,3.2,3.2,0,0,0,.3.9l.6.6.9.2h.8l.5-.3a.8.8,0,0,0,.4-.4l.3-.5V55.9a1.4,1.4,0,0,0-.2-.6l-.5-.4-.5-.3h-.7l-1,.2-.6.6a3.2,3.2,0,0,0-.3.9,4.3,4.3,0,0,0-.2,1.1Z"/><path d="M200.8,61a2.7,2.7,0,0,1-1.2-.3l-1-.7a2.9,2.9,0,0,1-.6-1.1,2.7,2.7,0,0,1-.2-1.3v-.3a3.2,3.2,0,0,1,.2-1.4l.6-1.1,1-.7a2,2,0,0,1,1.1-.3,2.7,2.7,0,0,1,1.2.3,1.6,1.6,0,0,1,.8.6,3.1,3.1,0,0,1,.5,1,2.7,2.7,0,0,1,.2,1.3v.5h-4.9a4.3,4.3,0,0,0,.2,1.1,2.2,2.2,0,0,0,.5.8,1.3,1.3,0,0,0,.7.6l1,.2,1-.2a3.1,3.1,0,0,0,.9-.7l.5.3-.4.5-.6.4-.6.3Zm-.1-6.5a1.1,1.1,0,0,0-.8.2l-.7.4a5.9,5.9,0,0,0-.4.8,9.4,9.4,0,0,0-.3.9h4.2a2.4,2.4,0,0,0-.2-.8,1.6,1.6,0,0,0-.4-.7,1,1,0,0,0-.6-.5A1.1,1.1,0,0,0,200.7,54.5Z"/><path d="M209,59.1c0-.2,0-.3-.1-.4a.5.5,0,0,0-.2-.4l-.6-.4-.9-.3-1-.2-.8-.4-.5-.6a1.5,1.5,0,0,1-.1-.7,1.7,1.7,0,0,1,.1-.7l.5-.6a2,2,0,0,1,.8-.4l1-.2,1.1.2.8.4.5.7a1.9,1.9,0,0,1,.1.8H209a4.3,4.3,0,0,0-.1-.5l-.4-.5-.5-.3h-1.6l-.5.3-.3.4c0,.1-.1.2-.1.4s.1.3.1.4l.3.4.5.2,1,.3,1,.3.8.5a1,1,0,0,1,.4.5,1.9,1.9,0,0,1,.2.8,1.9,1.9,0,0,1-.2.7,1,1,0,0,1-.5.6,2,2,0,0,1-.8.4l-1.1.2-1.1-.2a2.6,2.6,0,0,1-.9-.5l-.5-.6a2.4,2.4,0,0,1-.2-.8h.8a1.4,1.4,0,0,0,.2.7,1,1,0,0,0,.5.4l.6.3H208a.9.9,0,0,0,.6-.3l.3-.3A1.1,1.1,0,0,0,209,59.1Z"/><path d="M220.2,57.5a5.9,5.9,0,0,1-.2,1.4,3.7,3.7,0,0,1-.5,1.1,2.7,2.7,0,0,1-.8.7,2.4,2.4,0,0,1-1.2.3,2.1,2.1,0,0,1-1.2-.3,2.4,2.4,0,0,1-.9-.8v.9h-.7V51.1h.8V55a2,2,0,0,1,.9-.9,2.1,2.1,0,0,1,1.2-.3,1.8,1.8,0,0,1,1.1.3,2.2,2.2,0,0,1,.9.7,3.7,3.7,0,0,1,.5,1.1,5.9,5.9,0,0,1,.2,1.4Zm-.8-.2a4.1,4.1,0,0,0-.1-1.1,3.6,3.6,0,0,0-.4-.9,1.7,1.7,0,0,0-.6-.6l-.9-.2h-.8l-.5.3-.4.5a1.3,1.3,0,0,0-.3.5V59l.3.5.4.4.6.3h.7l.9-.2c.2-.2.5-.4.6-.6a3.6,3.6,0,0,0,.4-.9,4.1,4.1,0,0,0,.1-1.1Z"/><path d="M224.5,61a2.4,2.4,0,0,1-1.2-.3l-1-.7a2,2,0,0,1-.6-1.1,2.8,2.8,0,0,1-.3-1.3v-.3a3.2,3.2,0,0,1,.3-1.4,2.4,2.4,0,0,1,.6-1.1l.9-.7a2.7,2.7,0,0,1,1.2-.3,2,2,0,0,1,1.1.3,1.8,1.8,0,0,1,.9.6,3.1,3.1,0,0,1,.5,1,5.1,5.1,0,0,1,.2,1.3v.5h-4.9a2.2,2.2,0,0,0,.2,1.1,2,2,0,0,0,.4.8,1.6,1.6,0,0,0,.8.6l.9.2,1.1-.2.9-.7.4.3a2.9,2.9,0,0,1-.9.9l-.7.3Zm-.1-6.5a1.1,1.1,0,0,0-.8.2l-.7.4a5.6,5.6,0,0,0-.5.8,2.4,2.4,0,0,0-.2.9h4.1a2.2,2.2,0,0,0-.1-.8,1.6,1.6,0,0,0-.4-.7l-.6-.5A1.1,1.1,0,0,0,224.4,54.5Z"/><path d="M229.7,52.2V54h1.5v.6h-1.5v4.6a4.3,4.3,0,0,0,.1.5l.2.4.3.2h.9v.7h-1.4l-.5-.3a3.3,3.3,0,0,1-.3-.6,1.9,1.9,0,0,1-.1-.8V54.6h-1.3V54H229V52.2Z"/><path d="M234.4,59.3v-.1l1.7-5.2h.6l1.7,5.2.2.7v-.7l1.4-5.2h.8l-2,6.8h-.7l-1.7-5.4v0l-1.7,5.4h-.7l-2-6.8h.8Z"/><path d="M245.2,61a2.1,2.1,0,0,1-1.2-.3l-1-.7a3,3,0,0,1-.7-1.1,5.1,5.1,0,0,1-.2-1.3v-.3a3.2,3.2,0,0,1,.3-1.4,2.4,2.4,0,0,1,.6-1.1l.9-.7a2.7,2.7,0,0,1,1.2-.3,2,2,0,0,1,1.1.3,1.8,1.8,0,0,1,.9.6,3.1,3.1,0,0,1,.5,1,5.1,5.1,0,0,1,.2,1.3v.5h-4.9a4.1,4.1,0,0,0,.1,1.1,5.6,5.6,0,0,0,.5.8,1.6,1.6,0,0,0,.8.6l.9.2,1.1-.2.9-.7.4.3a2.9,2.9,0,0,1-.9.9l-.7.3Zm-.1-6.5a1.1,1.1,0,0,0-.8.2l-.7.4a5.6,5.6,0,0,0-.5.8,2.4,2.4,0,0,0-.2.9H247a2.2,2.2,0,0,0-.1-.8,1.6,1.6,0,0,0-.4-.7l-.6-.5A1.1,1.1,0,0,0,245.1,54.5Z"/><path d="M251.9,61a2.4,2.4,0,0,1-1.2-.3l-1-.7a2,2,0,0,1-.6-1.1,2.8,2.8,0,0,1-.3-1.3v-.3a3.2,3.2,0,0,1,.3-1.4,2.4,2.4,0,0,1,.6-1.1l1-.7a2.2,2.2,0,0,1,2.2,0,1.5,1.5,0,0,1,.9.6,3.1,3.1,0,0,1,.5,1,5.1,5.1,0,0,1,.2,1.3v.5h-4.9a2.2,2.2,0,0,0,.2,1.1,2,2,0,0,0,.4.8,1.6,1.6,0,0,0,.8.6l.9.2,1.1-.2.9-.7.4.3a2.9,2.9,0,0,1-.9.9l-.7.3Zm-.1-6.5a1.1,1.1,0,0,0-.8.2l-.7.4a2,2,0,0,0-.4.8c-.2.2-.2.6-.3.9h4.1a2.2,2.2,0,0,0-.1-.8,1.6,1.6,0,0,0-.4-.7,1,1,0,0,0-.6-.5A1.1,1.1,0,0,0,251.8,54.5Z"/><path d="M256.7,54v1.1l.4-.5.5-.4.7-.3h.7l.9.2.7.4a2,2,0,0,1,.4.8,4.1,4.1,0,0,1,.1,1.2v4.4h-.7V56.4a2.2,2.2,0,0,0-.1-.9,1.6,1.6,0,0,0-.3-.6l-.6-.3H258a1,1,0,0,0-.5.4l-.5.5-.3.6v4.7H256V54Z"/><path d="M273,58l-.3,1.2a3.6,3.6,0,0,1-.7,1l-1,.6-1.4.2a3.2,3.2,0,0,1-1.4-.3,2.4,2.4,0,0,1-1.1-.9,3.3,3.3,0,0,1-.7-1.3,4.7,4.7,0,0,1-.3-1.7V55.6a4.7,4.7,0,0,1,.3-1.7,3.3,3.3,0,0,1,.7-1.3,3.1,3.1,0,0,1,1.1-.8,4.1,4.1,0,0,1,2.8-.1,2.1,2.1,0,0,1,1,.6,2.2,2.2,0,0,1,.7.9l.3,1.3h-.8a3,3,0,0,0-.2-1,5.6,5.6,0,0,0-.5-.8l-.8-.4-1.1-.2a2,2,0,0,0-1.1.3,2.8,2.8,0,0,0-.9.7,3.7,3.7,0,0,0-.5,1.1,5.9,5.9,0,0,0-.2,1.4v1.2a5.9,5.9,0,0,0,.2,1.4,3.7,3.7,0,0,0,.5,1.1,1.8,1.8,0,0,0,.8.7,2.7,2.7,0,0,0,1.2.3,2.4,2.4,0,0,0,1.8-.6,2.5,2.5,0,0,0,.8-1.7Z"/><path d="M274.3,57.3a5.9,5.9,0,0,1,.2-1.4l.6-1.1,1-.7a2.8,2.8,0,0,1,1.3-.3,2.7,2.7,0,0,1,1.2.3l1,.7a2.4,2.4,0,0,1,.6,1.1,3.2,3.2,0,0,1,.2,1.4v.2a3.2,3.2,0,0,1-.2,1.4,2.4,2.4,0,0,1-.6,1.1l-1,.7a2.4,2.4,0,0,1-1.2.3,2.8,2.8,0,0,1-1.3-.3l-1-.7-.6-1.1a5.9,5.9,0,0,1-.2-1.4Zm.8.2a4.1,4.1,0,0,0,.1,1.1,4.1,4.1,0,0,0,.5.9,2.2,2.2,0,0,0,.7.6l1,.2,1-.2.7-.6a3.6,3.6,0,0,0,.4-.9,4.3,4.3,0,0,0,.2-1.1v-.2a4.3,4.3,0,0,0-.2-1.1,3.6,3.6,0,0,0-.4-.9l-.8-.6-.9-.2-1,.2a2.2,2.2,0,0,0-.7.6,4.1,4.1,0,0,0-.5.9,4.1,4.1,0,0,0-.1,1.1Z"/><path d="M282.7,54v1.1l.5-.5a1,1,0,0,1,.5-.4l.6-.3h.7l.9.2.7.4a2,2,0,0,1,.4.8,3.7,3.7,0,0,1,.2,1.2v4.4h-.8V56.4a2.2,2.2,0,0,0-.1-.9,1.6,1.6,0,0,0-.3-.6l-.5-.3h-1.4a.9.9,0,0,0-.6.4l-.5.5-.3.6v4.7H282V54Z"/><path d="M289.9,54v1.1l.4-.5a1,1,0,0,1,.5-.4l.6-.3h.7l.9.2.7.4a2.2,2.2,0,0,1,.5.8,4.1,4.1,0,0,1,.1,1.2v4.4h-.7V56.4a2,2,0,0,0-.2-.9.6.6,0,0,0-.3-.6l-.5-.3h-1.4l-.6.4-.4.5-.3.6v4.7h-.8V54Z"/><path d="M298.9,61l-1.2-.3-1-.7a2.9,2.9,0,0,1-.6-1.1,2.7,2.7,0,0,1-.2-1.3v-.3a3.2,3.2,0,0,1,.2-1.4l.6-1.1,1-.7a2,2,0,0,1,1.1-.3,2.7,2.7,0,0,1,1.2.3,1.6,1.6,0,0,1,.8.6,3.1,3.1,0,0,1,.5,1,2.7,2.7,0,0,1,.2,1.3v.5h-4.9a4.3,4.3,0,0,0,.2,1.1,2.2,2.2,0,0,0,.5.8,1.3,1.3,0,0,0,.7.6l1,.2,1-.2a3.1,3.1,0,0,0,.9-.7l.5.3-.4.5-.6.4-.6.3Zm-.1-6.5a1.1,1.1,0,0,0-.8.2l-.7.4-.4.8-.3.9h4.2c-.1-.3-.1-.5-.2-.8a1.6,1.6,0,0,0-.4-.7,1,1,0,0,0-.6-.5A1.1,1.1,0,0,0,298.8,54.5Z"/><path d="M305.5,60.3h.7l.6-.3a1,1,0,0,0,.4-.5.8.8,0,0,0,.2-.7h.8a1.6,1.6,0,0,1-.3.9,1.3,1.3,0,0,1-.6.7l-.8.5-1,.2a2.1,2.1,0,0,1-1.2-.3l-1-.7a3.7,3.7,0,0,1-.5-1.1,5.9,5.9,0,0,1-.2-1.4v-.2a5.9,5.9,0,0,1,.2-1.4,3.7,3.7,0,0,1,.5-1.1l1-.7a2.1,2.1,0,0,1,1.2-.3l1,.2a2.6,2.6,0,0,1,.9.5,2.2,2.2,0,0,1,.5.8,1.7,1.7,0,0,1,.3,1h-.8a2.2,2.2,0,0,0-.1-.8l-.5-.5a1,1,0,0,0-.5-.4h-.8l-1,.2-.6.6a3.6,3.6,0,0,0-.4.9,4.1,4.1,0,0,0-.1,1.1v.2a3.7,3.7,0,0,0,.1,1.1,3.6,3.6,0,0,0,.4.9,1.7,1.7,0,0,0,.6.6Z"/><path d="M310.9,52.2V54h1.4v.6h-1.4v5.1c.1.2.2.3.2.4l.3.2h1v.7H311l-.5-.3-.3-.6a1.9,1.9,0,0,1-.1-.8V54.6h-1.3V54h1.3V52.2Z"/><path d="M316.5,61a2.7,2.7,0,0,1-1.2-.3l-1-.7a2,2,0,0,1-.6-1.1,2.8,2.8,0,0,1-.3-1.3v-.3a3.2,3.2,0,0,1,.3-1.4,3.9,3.9,0,0,1,.6-1.1l1-.7a2.2,2.2,0,0,1,2.2,0,1.5,1.5,0,0,1,.9.6,3.1,3.1,0,0,1,.5,1,5.1,5.1,0,0,1,.2,1.3v.5h-4.9a4.3,4.3,0,0,0,.2,1.1,1.4,1.4,0,0,0,.5.8,1.3,1.3,0,0,0,.7.6l1,.2,1-.2.9-.7.5.3-.4.5-.6.4-.6.3Zm-.1-6.5a1.1,1.1,0,0,0-.8.2l-.7.4a2,2,0,0,0-.4.8,9.4,9.4,0,0,0-.3.9h4.1a2.2,2.2,0,0,0-.1-.8,1.6,1.6,0,0,0-.4-.7,1,1,0,0,0-.6-.5A1.1,1.1,0,0,0,316.4,54.5Z"/><path d="M320.3,57.3a3.2,3.2,0,0,1,.2-1.4,3.7,3.7,0,0,1,.5-1.1,2.7,2.7,0,0,1,.8-.7,2.3,2.3,0,0,1,1.1-.3,2.8,2.8,0,0,1,1.3.3,3,3,0,0,1,.8.8V51.1h.8v9.7h-.7v-.9l-.9.8a2.8,2.8,0,0,1-1.3.3,2,2,0,0,1-1.1-.3,2.7,2.7,0,0,1-.8-.7,3.7,3.7,0,0,1-.5-1.1,3.2,3.2,0,0,1-.2-1.4Zm.7.2a4.3,4.3,0,0,0,.2,1.1,3.2,3.2,0,0,0,.3.9l.7.6.9.2h.7l.5-.2.4-.4a.9.9,0,0,0,.3-.5V55.8l-.2-.5-.4-.4-.6-.3h-.7l-.9.2-.7.6a3.2,3.2,0,0,0-.3.9,4.3,4.3,0,0,0-.2,1.1Z"/><path d="M337.7,58l-.3,1.2a3.6,3.6,0,0,1-.7,1l-1.1.6-1.3.2a3.2,3.2,0,0,1-1.4-.3,2.4,2.4,0,0,1-1.1-.9,3.3,3.3,0,0,1-.7-1.3,4.7,4.7,0,0,1-.3-1.7V55.6a4.7,4.7,0,0,1,.3-1.7,3.3,3.3,0,0,1,.7-1.3,3.1,3.1,0,0,1,1.1-.8,4.1,4.1,0,0,1,2.8-.1,2.1,2.1,0,0,1,1,.6,2.2,2.2,0,0,1,.7.9l.3,1.3h-.8a1.7,1.7,0,0,0-.3-1,1.4,1.4,0,0,0-.5-.8l-.7-.4-1.1-.2a2,2,0,0,0-1.1.3c-.4.1-.6.4-.9.7a3.7,3.7,0,0,0-.5,1.1,5.9,5.9,0,0,0-.2,1.4v1.2a5.9,5.9,0,0,0,.2,1.4,3.7,3.7,0,0,0,.5,1.1,1.8,1.8,0,0,0,.8.7,2.7,2.7,0,0,0,1.2.3,2.4,2.4,0,0,0,1.8-.6,3,3,0,0,0,.8-1.7Z"/><path d="M340.3,60.8h-.8V51.1h.8Z"/><path d="M342.3,52c0-.2,0-.3.1-.4h.8c.1.1.1.2.1.4a.4.4,0,0,1-.1.3.5.5,0,0,1-.4.2l-.4-.2A.4.4,0,0,1,342.3,52Zm.9,8.8h-.8V54h.8Z"/><path d="M347.9,61a2.1,2.1,0,0,1-1.2-.3l-1-.7a3,3,0,0,1-.7-1.1,5.1,5.1,0,0,1-.2-1.3v-.3a3.2,3.2,0,0,1,.3-1.4,2.4,2.4,0,0,1,.6-1.1l.9-.7a2.7,2.7,0,0,1,1.2-.3,2,2,0,0,1,1.1.3,1.8,1.8,0,0,1,.9.6,3.1,3.1,0,0,1,.5,1,5.1,5.1,0,0,1,.2,1.3v.5h-4.9a4.1,4.1,0,0,0,.1,1.1,5.6,5.6,0,0,0,.5.8,1.6,1.6,0,0,0,.8.6l.9.2,1.1-.2.9-.7.4.3a2.9,2.9,0,0,1-.9.9l-.7.3Zm-.1-6.5a1.1,1.1,0,0,0-.8.2l-.7.4a5.6,5.6,0,0,0-.5.8,2.4,2.4,0,0,0-.2.9h4.1a2.2,2.2,0,0,0-.1-.8,1.6,1.6,0,0,0-.4-.7l-.6-.5A1.1,1.1,0,0,0,347.8,54.5Z"/><path d="M352.7,54v1.1l.4-.5.5-.4.6-.3h.7l1,.2c.2.1.5.2.6.4a2.2,2.2,0,0,1,.5.8,4.1,4.1,0,0,1,.1,1.2v4.4h-.7V56.4c0-.4-.1-.7-.1-.9a.9.9,0,0,0-.4-.6l-.5-.3H354l-.6.4-.4.5-.3.6v4.7H352V54Z"/><path d="M360.3,52.2V54h1.4v.6h-1.4v5.1c.1.2.2.3.2.4l.3.2h1v.7h-1.4l-.5-.3a3.3,3.3,0,0,1-.3-.6,1.9,1.9,0,0,1-.1-.8V54.6h-1.3V54h1.3V52.2Z"/><path d="M367.4,59.1c0-.2,0-.3-.1-.4s-.1-.3-.3-.4a1,1,0,0,0-.5-.4l-1-.3-1-.2-.7-.4-.5-.6a1.4,1.4,0,0,1-.2-.7,1.9,1.9,0,0,1,.2-.7l.5-.6a2,2,0,0,1,.8-.4l1-.2,1,.2a1.5,1.5,0,0,1,.8.4,1.2,1.2,0,0,1,.5.7,1.9,1.9,0,0,1,.2.8h-.8a.7.7,0,0,0-.1-.5l-.3-.5-.6-.3h-1.5l-.5.3-.3.4c-.1.1-.1.2-.1.4a.6.6,0,0,0,.1.4c0,.1.1.2.3.4l.5.2.9.3,1.1.3.8.5a1,1,0,0,1,.4.5,1.9,1.9,0,0,1,.1.8,1.7,1.7,0,0,1-.1.7c-.2.3-.3.5-.5.6l-.8.4-1.1.2-1.1-.2a1.9,1.9,0,0,1-.9-.5l-.5-.6a2.4,2.4,0,0,1-.2-.8h.8a1.4,1.4,0,0,0,.2.7l.4.4.7.3h1.4a.5.5,0,0,0,.5-.3l.4-.3A4.3,4.3,0,0,1,367.4,59.1Z"/></g></g></svg>