<svg xmlns="http://www.w3.org/2000/svg" viewBox="0 0 472 82"><defs><style>.cls-1,.cls-3{fill:#fff;}.cls-2{fill:#0f62fe;}.cls-3{stroke:#fff;stroke-miterlimit:10;stroke-width:0.25px;}</style></defs><title>Banner</title><g id="Layer_2" data-name="Layer 2"><g id="Layer_1-2" data-name="Layer 1"><rect class="cls-1" width="472" height="82"/><path d="M102.3,45.2H96.4V19.6h5.9Z"/><path d="M106.8,45.2V19.6h8.4a13.1,13.1,0,0,1,7.4,1.8,5.9,5.9,0,0,1,2.7,5.3,5.7,5.7,0,0,1-.9,3.2,4.8,4.8,0,0,1-2.6,2.2,5.6,5.6,0,0,1,3.4,2,6.1,6.1,0,0,1,1.1,3.6,6.8,6.8,0,0,1-2.5,5.6c-1.7,1.3-4.1,1.9-7.3,1.9Zm5.9-14.9h2.4a5.6,5.6,0,0,0,3.2-.7,2.6,2.6,0,0,0,1-2.3,2.6,2.6,0,0,0-1-2.3,5.2,5.2,0,0,0-3.1-.8h-2.5Zm0,3.9v6.5h3.8a4.6,4.6,0,0,0,2.9-.8,2.7,2.7,0,0,0,.9-2.3,3.3,3.3,0,0,0-.8-2.5,4.5,4.5,0,0,0-2.7-.9h-4.1Z"/><path d="M143.3,37.6h.1l5.8-18H157V45.2h-5.9V28.7H151l-5.7,16.5h-4L135.8,29h-.1V45.2h-6V19.6h7.8Z"/><path d="M190.6,36.2h.1l3.1-16.6h6.1L194,45.2h-5.6l-4.3-15.8H184l-4.3,15.8h-5.6l-5.9-25.6h6.1l3.1,16.7h.1l4.3-16.7h4.5Z"/><path d="M212.2,45.2l-.6-1.3a9,9,0,0,1-.3-1.6,9.6,9.6,0,0,1-1.9,2.4,4.9,4.9,0,0,1-3,.9,6.8,6.8,0,0,1-4.7-1.5,5.7,5.7,0,0,1-1.6-4.2,5.1,5.1,0,0,1,2.1-4.4c1.4-1,3.6-1.5,6.5-1.5h2.4V32.6a2.4,2.4,0,0,0-.6-1.8,2.1,2.1,0,0,0-1.8-.7,2.3,2.3,0,0,0-1.5.5,2.1,2.1,0,0,0-.5,1.5h-5.8a4.8,4.8,0,0,1,2.2-4.4,9.3,9.3,0,0,1,6-1.7,8.9,8.9,0,0,1,5.8,1.7,6.3,6.3,0,0,1,2.1,5v7.2a12,12,0,0,0,.3,2.8,11.2,11.2,0,0,0,.8,2.6ZM208,41.4a3.8,3.8,0,0,0,1.9-.5,2.9,2.9,0,0,0,1.2-1.3V37.1h-2.4a2.8,2.8,0,0,0-2,.7,2.4,2.4,0,0,0-.7,1.8,1.8,1.8,0,0,0,.6,1.3A2,2,0,0,0,208,41.4Z"/><path d="M227.1,21.5v4.7h3v4.1h-3V39a2.7,2.7,0,0,0,.4,1.5,1.6,1.6,0,0,0,1.1.5h1.5l.4,4.4-1.6.3h-1.8a5.7,5.7,0,0,1-4.4-1.6c-1-1-1.5-2.7-1.5-4.9V30.3h-2.7V26.2h2.7V21.5Z"/><path d="M242.9,39.9a1.5,1.5,0,0,0-.8-1.3,10.3,10.3,0,0,0-2.9-1,11.1,11.1,0,0,1-5-2,4.5,4.5,0,0,1-1.7-3.7,5.4,5.4,0,0,1,2.1-4.3,8.4,8.4,0,0,1,5.7-1.7,9.4,9.4,0,0,1,6.1,1.7,4.8,4.8,0,0,1,2.1,4.3v.2h-5.8a3,3,0,0,0-.5-1.8,3.1,3.1,0,0,0-1.9-.5,2,2,0,0,0-1.5.5,1.4,1.4,0,0,0-.7,1.3,1.9,1.9,0,0,0,.7,1.3,10.8,10.8,0,0,0,3,.9,12,12,0,0,1,5.2,2.1,4.6,4.6,0,0,1,1.6,3.8,5,5,0,0,1-2.2,4.2,10.5,10.5,0,0,1-6.1,1.7,9,9,0,0,1-6.1-2,5.6,5.6,0,0,1-2.2-4.4h5.5a2.2,2.2,0,0,0,.8,2,3.4,3.4,0,0,0,2.2.6,3,3,0,0,0,1.8-.5A1.5,1.5,0,0,0,242.9,39.9Z"/><path d="M250.6,35.5a9.6,9.6,0,0,1,2.5-6.9,8.5,8.5,0,0,1,6.7-2.7,8.7,8.7,0,0,1,6.8,2.7,10,10,0,0,1,2.4,6.9v.4a10.1,10.1,0,0,1-2.4,7,9.8,9.8,0,0,1-13.5,0,9.7,9.7,0,0,1-2.5-7Zm6,.4a8.1,8.1,0,0,0,.7,3.8,2.7,2.7,0,0,0,2.6,1.3,2.7,2.7,0,0,0,2.5-1.3,8.3,8.3,0,0,0,.7-3.8v-.4a8.2,8.2,0,0,0-.7-3.7,2.8,2.8,0,0,0-2.6-1.4,2.7,2.7,0,0,0-2.5,1.4,8.2,8.2,0,0,0-.7,3.7Z"/><path d="M277.1,26.2l.3,2.7a5.4,5.4,0,0,1,2.3-2.2,5.2,5.2,0,0,1,3-.8,5.3,5.3,0,0,1,4.4,1.9c1,1.2,1.6,3.2,1.6,6V45.2h-6V33.8a4.3,4.3,0,0,0-.6-2.6,2,2,0,0,0-1.7-.8,3.3,3.3,0,0,0-1.7.4,2.7,2.7,0,0,0-1.2.9V45.2h-5.9v-19Z"/><path d="M307.5,45.2h-5.9V19.6h5.9Z"/><path d="M310.8,35.5a10,10,0,0,1,2.4-6.9,9.9,9.9,0,0,1,13.6,0,10,10,0,0,1,2.4,6.9v.4a10.1,10.1,0,0,1-2.4,7,9.9,9.9,0,0,1-13.6,0,10.1,10.1,0,0,1-2.4-7Zm5.9.4a8,8,0,0,0,.8,3.8,3.1,3.1,0,0,0,5,0,8.2,8.2,0,0,0,.8-3.8v-.4a8.1,8.1,0,0,0-.8-3.7,2.9,2.9,0,0,0-5,0,8.1,8.1,0,0,0-.8,3.7Z"/><path d="M350,24.2h-6.8v21h-5.9v-21h-6.7V19.6H350Z"/><path d="M96.1,60.8h-.7V51.6h.7Z"/><path d="M103.9,58.6a1.4,1.4,0,0,0-.2-.7c0-.2-.2-.4-.4-.6l-.7-.4-1.3-.4-1.2-.4-1-.6-.6-.7a2.9,2.9,0,0,1-.2-.9,1.7,1.7,0,0,1,.3-1,1.6,1.6,0,0,1,.6-.8l1-.5h1.2a2.5,2.5,0,0,1,1.3.2,1.7,1.7,0,0,1,1,.6,2.7,2.7,0,0,1,.7.8,4.3,4.3,0,0,1,.2,1.1h-.8a1.9,1.9,0,0,0-.1-.8l-.5-.7a2,2,0,0,0-.8-.4l-1-.2-1,.2-.7.3a2.1,2.1,0,0,0-.4.6,1.4,1.4,0,0,0-.2.6,3.5,3.5,0,0,0,.1.6l.4.6.8.4,1.2.4,1.3.4,1,.6.6.8a2.4,2.4,0,0,1,.2.9,2,2,0,0,1-.3,1.1c-.1.3-.4.5-.6.7l-1,.5-1.3.2h-.8l-.8-.2-.8-.4-.5-.5a2.5,2.5,0,0,1-.4-.7,2.9,2.9,0,0,1-.2-.9h.8a1.7,1.7,0,0,0,.3,1,1.2,1.2,0,0,0,.6.6,2,2,0,0,0,.8.4h2l.7-.4a1.2,1.2,0,0,0,.5-.5A1.9,1.9,0,0,0,103.9,58.6Z"/><path d="M112.6,52.3h-3.2v8.5h-.7V52.3h-3.2v-.7h7.1Z"/><path d="M119.2,56.4h-4.3v3.8h5v.6h-5.8V51.6h5.7v.7h-4.9v3.4h4.3Z"/><path d="M130.1,52l-4,8.8h-.8l3.9-8.6H124v-.6h6.1Z"/><path d="M133.3,55.8H135l.6-.4.5-.6c0-.2.1-.5.1-.7s-.1-.5-.1-.8a2.1,2.1,0,0,0-.4-.6.9.9,0,0,0-.6-.3l-.9-.2h-.8l-.6.4a2.1,2.1,0,0,0-.4.6,2.4,2.4,0,0,0-.2.8h-.7a1.6,1.6,0,0,1,.2-1,1.6,1.6,0,0,1,.6-.8l.8-.5a2.2,2.2,0,0,1,1.1-.2h1.2l.8.5.6.8a4.1,4.1,0,0,1,.1,1.1,1.3,1.3,0,0,1-.1.6.7.7,0,0,1-.3.6,1,1,0,0,1-.4.5l-.7.4.8.3.5.6.3.6a1.7,1.7,0,0,1,.1.7,3.6,3.6,0,0,1-.2,1.1,1.8,1.8,0,0,1-.6.9,1.9,1.9,0,0,1-.9.5l-1.1.2-1.1-.2-1-.5a2.4,2.4,0,0,1-.6-.8,2.1,2.1,0,0,1-.3-1.2h.8a1.9,1.9,0,0,0,.1.8,1.8,1.8,0,0,0,.5.7l.7.4h.9a2,2,0,0,0,1.5-.5,1.7,1.7,0,0,0,.6-1.4,2,2,0,0,0-.2-.9,1,1,0,0,0-.5-.6.9.9,0,0,0-.7-.3l-1-.2h-.7Z"/><path d="M144.3,57a8.6,8.6,0,0,1-.1,1.7,8.1,8.1,0,0,1-.6,1.3,1.6,1.6,0,0,1-.9.7,2.1,2.1,0,0,1-1.2.3,2.7,2.7,0,0,1-1.2-.3,2.8,2.8,0,0,1-.9-.7,3.9,3.9,0,0,1-.5-1.3,4.4,4.4,0,0,1-.2-1.7V55.4a4.4,4.4,0,0,1,.2-1.7,5,5,0,0,1,.5-1.3l.9-.7a3.7,3.7,0,0,1,2.4,0l.9.7a5,5,0,0,1,.5,1.3,4.4,4.4,0,0,1,.2,1.7Zm-.7-1.7a5.4,5.4,0,0,0-.5-2.4,2,2,0,0,0-3.2,0,5.4,5.4,0,0,0-.5,2.4v1.8a6.8,6.8,0,0,0,.2,1.4,2.9,2.9,0,0,0,.3,1c.2.2.4.5.7.6l.9.2.9-.2c.3-.1.5-.4.7-.6a10.4,10.4,0,0,0,.4-1c0-.5.1-.9.1-1.4Z"/><path d="M151.6,57.1h-3v-.7h3Z"/><path d="M161.4,56.5h-4.3v4.3h-.8V51.6H162v.7h-4.9v3.6h4.3Z"/><path d="M162.9,57.3a5.9,5.9,0,0,1,.2-1.4l.6-1.1,1-.7a2.8,2.8,0,0,1,1.3-.3,2.4,2.4,0,0,1,1.2.3l1,.7a2.4,2.4,0,0,1,.6,1.1,3.2,3.2,0,0,1,.2,1.4v.2a3.2,3.2,0,0,1-.2,1.4,2.4,2.4,0,0,1-.6,1.1l-1,.7a2.4,2.4,0,0,1-1.2.3,2.8,2.8,0,0,1-1.3-.3l-1-.7-.6-1.1a5.9,5.9,0,0,1-.2-1.4Zm.8.2a4.1,4.1,0,0,0,.1,1.1,4.1,4.1,0,0,0,.5.9l.7.6,1,.2,1-.2.7-.6a3.6,3.6,0,0,0,.4-.9,4.3,4.3,0,0,0,.2-1.1v-.2a4.3,4.3,0,0,0-.2-1.1,3.6,3.6,0,0,0-.4-.9l-.7-.6-1-.2-1,.2-.7.6a4.1,4.1,0,0,0-.5.9,4.1,4.1,0,0,0-.1,1.1Z"/><path d="M175,60a2.7,2.7,0,0,1-.8.7,2.9,2.9,0,0,1-1.4.3l-.9-.2-.7-.4a2.2,2.2,0,0,1-.5-.8,4.9,4.9,0,0,1-.1-1.2V54h.7v4.4a2.4,2.4,0,0,0,.2.9c0,.2.2.4.3.6l.5.3h1.4l.6-.3.4-.4c.2-.2.2-.4.3-.6V54h.8v6.8H175Z"/><path d="M178.5,54v1.1l.4-.5.5-.4.6-.3h.7l.9.2.7.4a2.2,2.2,0,0,1,.5.8,4.1,4.1,0,0,1,.1,1.2v4.4h-.7V56.4a2,2,0,0,0-.2-.9.6.6,0,0,0-.3-.6l-.5-.3h-1.4l-.6.4-.4.5-.3.6v4.7h-.8V54Z"/><path d="M184.6,57.3a3.2,3.2,0,0,1,.2-1.4,3.7,3.7,0,0,1,.5-1.1,2.7,2.7,0,0,1,.8-.7,2,2,0,0,1,1.1-.3,2.8,2.8,0,0,1,1.3.3,3,3,0,0,1,.8.8V51.1h.8v9.7h-.7v-.9l-.9.8a2.8,2.8,0,0,1-1.3.3,2,2,0,0,1-1.1-.3,2.7,2.7,0,0,1-.8-.7,3.7,3.7,0,0,1-.5-1.1,3.2,3.2,0,0,1-.2-1.4Zm.7.2a4.3,4.3,0,0,0,.2,1.1,3.2,3.2,0,0,0,.3.9l.7.6.9.2h.7l.5-.2.4-.4a.9.9,0,0,0,.3-.5V55.8l-.2-.5-.4-.4-.6-.3h-.7l-.9.2-.7.6a3.2,3.2,0,0,0-.3.9,4.3,4.3,0,0,0-.2,1.1Z"/><path d="M196.4,60.8a.8.8,0,0,0-.1-.4v-.5l-.4.4-.5.3-.7.3H194l-.9-.2c-.3-.1-.6-.2-.7-.4l-.5-.6a2.4,2.4,0,0,1-.2-.8,1.6,1.6,0,0,1,.3-.9,1.3,1.3,0,0,1,.6-.7l1-.4,1.3-.2h1.4v-.7a1.7,1.7,0,0,0-.5-1.2,1.7,1.7,0,0,0-1.3-.4h-.7l-.6.3-.4.4a1.3,1.3,0,0,0-.1.6h-.8a1.9,1.9,0,0,1,.2-.8l.5-.6a2.6,2.6,0,0,1,.9-.5l1-.2,1.1.2.7.4a2,2,0,0,1,.6.7,3.1,3.1,0,0,1,.1,1v3.3a.8.8,0,0,0,.1.4v.3c0,.2,0,.3.1.4a.4.4,0,0,0,.1.3h-.9Zm-2.3-.5h.7l.7-.3.5-.4.3-.6V57.4h-2.4l-.7.3-.5.5a1.4,1.4,0,0,0-.2.6,1.3,1.3,0,0,0,.1.6l.3.4.5.3Z"/><path d="M200.2,52.2V54h1.5v.6h-1.5v4.6a4.3,4.3,0,0,0,.1.5l.2.4.3.2h1v.7h-1.4l-.5-.3a3.3,3.3,0,0,1-.3-.6,1.9,1.9,0,0,1-.1-.8V54.6h-1.3V54h1.3V52.2Z"/><path d="M203.2,52c0-.2,0-.3.1-.4h.8c.1.1.1.2.1.4a.4.4,0,0,1-.1.3.5.5,0,0,1-.4.2l-.4-.2A.4.4,0,0,1,203.2,52Zm.9,8.8h-.8V54h.8Z"/><path d="M205.7,57.3a3.2,3.2,0,0,1,.3-1.4,2.4,2.4,0,0,1,.6-1.1,3.1,3.1,0,0,1,.9-.7,3,3,0,0,1,2.6,0,3.1,3.1,0,0,1,.9.7,4.1,4.1,0,0,1,.7,1.1,5.9,5.9,0,0,1,.2,1.4v.2a5.9,5.9,0,0,1-.2,1.4A4.1,4.1,0,0,1,211,60a2.2,2.2,0,0,1-.9.7,3,3,0,0,1-2.6,0,3.1,3.1,0,0,1-.9-.7,2.4,2.4,0,0,1-.6-1.1,3.2,3.2,0,0,1-.3-1.4Zm.8.2a4.3,4.3,0,0,0,.2,1.1,3.6,3.6,0,0,0,.4.9l.7.6,1,.2,1-.2.7-.6a4.1,4.1,0,0,0,.5-.9,4.1,4.1,0,0,0,.1-1.1v-.2a4.1,4.1,0,0,0-.1-1.1,4.1,4.1,0,0,0-.5-.9l-.7-.6-1-.2-1,.2-.7.6a3.6,3.6,0,0,0-.4.9,4.3,4.3,0,0,0-.2,1.1Z"/><path d="M214.2,54v1.1l.4-.5.5-.4.6-.3h.7l.9.2.7.4a2.2,2.2,0,0,1,.5.8,4.1,4.1,0,0,1,.1,1.2v4.4h-.7V56.4a2,2,0,0,0-.2-.9.6.6,0,0,0-.3-.6l-.5-.3h-1.4l-.6.4-.4.5-.3.6v4.7h-.8V54Z"/><path d="M224.7,59.1c0-.2,0-.3-.1-.4s-.1-.3-.3-.4a1,1,0,0,0-.5-.4l-.9-.3-1.1-.2-.7-.4-.5-.6a1.5,1.5,0,0,1-.1-.7,1.7,1.7,0,0,1,.1-.7l.5-.6.8-.4,1-.2,1,.2a1.5,1.5,0,0,1,.8.4,1.2,1.2,0,0,1,.5.7,1.1,1.1,0,0,1,.2.8h-.7a.8.8,0,0,0-.2-.5c0-.2-.2-.3-.3-.5l-.6-.3h-1.5l-.5.3-.3.4c0,.1-.1.2-.1.4a.6.6,0,0,0,.1.4c0,.1.1.2.3.4l.5.2,1,.3,1,.3.8.5a1,1,0,0,1,.4.5,1.9,1.9,0,0,1,.2.8,1.9,1.9,0,0,1-.2.7,1,1,0,0,1-.5.6l-.8.4-1.1.2-1.1-.2a2.6,2.6,0,0,1-.9-.5l-.5-.6a2.4,2.4,0,0,1-.2-.8h.8a1.4,1.4,0,0,0,.2.7,1,1,0,0,0,.5.4l.6.3h1.4a.5.5,0,0,0,.5-.3l.4-.3A1.1,1.1,0,0,0,224.7,59.1Z"/><path d="M229.9,57.3a5.9,5.9,0,0,1,.2-1.4l.6-1.1,1-.7a2.8,2.8,0,0,1,1.3-.3,2.4,2.4,0,0,1,1.2.3l1,.7a2.4,2.4,0,0,1,.6,1.1,3.2,3.2,0,0,1,.2,1.4v.2a3.2,3.2,0,0,1-.2,1.4,2.4,2.4,0,0,1-.6,1.1l-1,.7a2.4,2.4,0,0,1-1.2.3,2.8,2.8,0,0,1-1.3-.3l-1-.7-.6-1.1a5.9,5.9,0,0,1-.2-1.4Zm.8.2a4.1,4.1,0,0,0,.1,1.1,4.1,4.1,0,0,0,.5.9l.7.6,1,.2,1-.2.7-.6a3.6,3.6,0,0,0,.4-.9,4.3,4.3,0,0,0,.2-1.1v-.2a4.3,4.3,0,0,0-.2-1.1,3.6,3.6,0,0,0-.4-.9l-.7-.6-1-.2-1,.2-.7.6a4.1,4.1,0,0,0-.5.9,4.1,4.1,0,0,0-.1,1.1Z"/><path d="M238.1,60.8V54.6H237V54h1.1v-.9a2.9,2.9,0,0,1,.2-.9,1.6,1.6,0,0,1,.4-.7l.6-.4H241v.6h-.7a1,1,0,0,0-.9.4,1.4,1.4,0,0,0-.4,1.1V54h1.6v.6h-1.6v6.2Z"/><path d="M246.2,60.8h-.8V51.6h.8Z"/><path d="M248.1,57.3a5.9,5.9,0,0,1,.2-1.4l.6-1.1,1-.7a2.8,2.8,0,0,1,1.3-.3,2.4,2.4,0,0,1,1.2.3l1,.7a2.4,2.4,0,0,1,.6,1.1,3.2,3.2,0,0,1,.2,1.4v.2a3.2,3.2,0,0,1-.2,1.4,2.4,2.4,0,0,1-.6,1.1l-1,.7a2.4,2.4,0,0,1-1.2.3,2.8,2.8,0,0,1-1.3-.3l-1-.7-.6-1.1a5.9,5.9,0,0,1-.2-1.4Zm.8.2a4.1,4.1,0,0,0,.1,1.1,4.1,4.1,0,0,0,.5.9l.7.6,1,.2,1-.2.7-.6a3.6,3.6,0,0,0,.4-.9,4.3,4.3,0,0,0,.2-1.1v-.2a4.3,4.3,0,0,0-.2-1.1,3.6,3.6,0,0,0-.4-.9l-.7-.6-1-.2-1,.2-.7.6a4.1,4.1,0,0,0-.5.9,4.1,4.1,0,0,0-.1,1.1Z"/><path d="M262.3,52.3h-3.2v8.5h-.8V52.3h-3.2v-.7h7.2Z"/><path d="M267.4,60.2H272v.6h-5.3V51.6h.7Z"/><path d="M277.7,60.8c-.1-.1-.1-.2-.1-.4a.9.9,0,0,1-.1-.5c-.1.1-.2.3-.4.4l-.5.3-.7.3h-.7l-.9-.2-.7-.4-.5-.6a2.2,2.2,0,0,1-.1-.8,1.5,1.5,0,0,1,.2-.9,1.3,1.3,0,0,1,.6-.7l1-.4,1.3-.2h1.4v-.7a1.6,1.6,0,0,0-.4-1.2,2,2,0,0,0-1.4-.4H275l-.6.3-.4.4a1.3,1.3,0,0,0-.1.6h-.8a1.9,1.9,0,0,1,.2-.8l.6-.6.8-.5,1.1-.2,1,.2.8.4a1.8,1.8,0,0,1,.5.7,3,3,0,0,1,.2,1v4c0,.2.1.3.1.4a.4.4,0,0,0,.1.3h-.8Zm-2.4-.5h.7l.7-.3.5-.4.3-.6V57.4h-2.3l-.8.3-.5.5a1.4,1.4,0,0,0-.2.6c0,.2.1.4.1.6l.4.4.4.3Z"/><path d="M285.8,57.5a3.2,3.2,0,0,1-.2,1.4,2.2,2.2,0,0,1-.5,1.1,2.7,2.7,0,0,1-.8.7,2,2,0,0,1-1.1.3,2.8,2.8,0,0,1-1.3-.3,3.4,3.4,0,0,1-.9-.8v.9h-.7V51.1h.7V55l.9-.9a2.8,2.8,0,0,1,1.3-.3,2,2,0,0,1,1.1.3,2.7,2.7,0,0,1,.8.7,2.2,2.2,0,0,1,.5,1.1,3.2,3.2,0,0,1,.2,1.4Zm-.7-.2a4.3,4.3,0,0,0-.2-1.1,3.2,3.2,0,0,0-.3-.9l-.6-.6-1-.2h-.7l-.6.3-.4.5-.3.5V59l.3.5.5.4.5.3h.8l.9-.2.6-.6a3.2,3.2,0,0,0,.3-.9,4.3,4.3,0,0,0,.2-1.1Z"/><path d="M295.9,56.4h-4.3v3.8h5v.6h-5.8V51.6h5.8v.7h-5v3.4h4.3Z"/><path d="M300.2,56.8l1.9-2.8h.9l-2.4,3.3,2.5,3.5h-.9l-2-2.9-1.9,2.9h-.9l2.4-3.5L297.5,54h.9Z"/><path d="M306.9,61a2.4,2.4,0,0,1-1.2-.3l-1-.7a2,2,0,0,1-.6-1.1,2.8,2.8,0,0,1-.3-1.3v-.3a3.2,3.2,0,0,1,.3-1.4,2.4,2.4,0,0,1,.6-1.1l.9-.7a2.7,2.7,0,0,1,1.2-.3,2,2,0,0,1,1.1.3,1.5,1.5,0,0,1,.9.6,3.1,3.1,0,0,1,.5,1,5.1,5.1,0,0,1,.2,1.3v.5h-4.9a2.2,2.2,0,0,0,.2,1.1,2,2,0,0,0,.4.8,1.6,1.6,0,0,0,.8.6l.9.2,1.1-.2.9-.7.4.3a2.9,2.9,0,0,1-.9.9l-.7.3Zm-.1-6.5a1.1,1.1,0,0,0-.8.2l-.7.4a2,2,0,0,0-.4.8c-.2.2-.2.6-.3.9h4.1a2.2,2.2,0,0,0-.1-.8,1.6,1.6,0,0,0-.4-.7,1,1,0,0,0-.6-.5A1.1,1.1,0,0,0,306.8,54.5Z"/><path d="M314.1,54.6h-1.2l-.5.3a1,1,0,0,0-.4.5l-.3.6v4.7H311V54h.7v1.1a2.4,2.4,0,0,1,.8-.9,1.6,1.6,0,0,1,1.2-.4h.5Z"/><path d="M317.8,60.3h.7l.5-.3.5-.5a6.4,6.4,0,0,0,.2-.7h.7a2.9,2.9,0,0,1-.2.9l-.6.7a2.6,2.6,0,0,1-.9.5l-.9.2a2.5,2.5,0,0,1-1.3-.3,2.2,2.2,0,0,1-.9-.7,2.4,2.4,0,0,1-.6-1.1,5.9,5.9,0,0,1-.2-1.4v-.2a5.9,5.9,0,0,1,.2-1.4,2.4,2.4,0,0,1,.6-1.1,2.2,2.2,0,0,1,.9-.7,2.4,2.4,0,0,1,1.2-.3l1.1.2.8.5.6.8a3,3,0,0,1,.2,1h-.7c-.1-.3-.1-.5-.2-.8l-.4-.5-.6-.4h-.8l-1,.2-.6.6a3.6,3.6,0,0,0-.4.9,4.1,4.1,0,0,0-.1,1.1v.2a3.7,3.7,0,0,0,.1,1.1,3.6,3.6,0,0,0,.4.9c.1.2.4.4.6.6Z"/><path d="M321.9,52c0-.2,0-.3.1-.4h.8c.1.1.1.2.1.4a.4.4,0,0,1-.1.3l-.4.2a.5.5,0,0,1-.4-.2A.4.4,0,0,1,321.9,52Zm.9,8.8H322V54h.8Z"/><path d="M328.9,59.1v-.4l-.3-.4a.9.9,0,0,0-.6-.4l-.9-.3-1-.2-.8-.4-.4-.6a1.4,1.4,0,0,1-.2-.7,1.9,1.9,0,0,1,.2-.7,1.3,1.3,0,0,1,.5-.6l.7-.4,1-.2,1.1.2a2,2,0,0,1,.8.4,1.8,1.8,0,0,1,.5.7,1.9,1.9,0,0,1,.2.8h-.8a.7.7,0,0,0-.1-.5l-.4-.5-.5-.3h-1.5l-.5.3c-.2.1-.3.2-.3.4s-.1.2-.1.4v.4l.3.4.6.2.9.3,1.1.3.7.5.5.5a1.9,1.9,0,0,1,.1.8,1.9,1.9,0,0,1-.2.7,1,1,0,0,1-.5.6,2,2,0,0,1-.8.4l-1,.2-1.2-.2-.8-.5a1.3,1.3,0,0,1-.5-.6,1.2,1.2,0,0,1-.2-.8h.7a6.4,6.4,0,0,0,.2.7l.5.4.6.3h1.4a.7.7,0,0,0,.6-.3c.1-.1.3-.2.3-.3A1.1,1.1,0,0,0,328.9,59.1Z"/><path d="M334.1,61a2.8,2.8,0,0,1-1.3-.3,3.1,3.1,0,0,1-.9-.7,3,3,0,0,1-.7-1.1,5.1,5.1,0,0,1-.2-1.3v-.3a5.9,5.9,0,0,1,.2-1.4,4.1,4.1,0,0,1,.7-1.1,3.1,3.1,0,0,1,.9-.7,2.3,2.3,0,0,1,1.1-.3,2.1,2.1,0,0,1,1.2.3,1.6,1.6,0,0,1,.8.6,3.3,3.3,0,0,1,.6,1,5.3,5.3,0,0,1,.1,1.3v.5h-4.9a4.3,4.3,0,0,0,.2,1.1,2.2,2.2,0,0,0,.5.8,1.9,1.9,0,0,0,.7.6l1,.2,1.1-.2a2.7,2.7,0,0,0,.8-.7l.5.3a2.9,2.9,0,0,1-.9.9l-.7.3Zm-.2-6.5a1.2,1.2,0,0,0-.8.2l-.6.4a2.2,2.2,0,0,0-.5.8,2.4,2.4,0,0,0-.2.9h4.1c0-.3-.1-.5-.1-.8a4.3,4.3,0,0,0-.4-.7l-.6-.5A1.3,1.3,0,0,0,333.9,54.5Z"/><path d="M342.2,59.1v-.4l-.3-.4a.9.9,0,0,0-.6-.4l-.9-.3-1-.2-.8-.4a2.1,2.1,0,0,1-.4-.6,1.4,1.4,0,0,1-.2-.7,1.9,1.9,0,0,1,.2-.7,1.3,1.3,0,0,1,.5-.6l.7-.4,1-.2,1.1.2a2,2,0,0,1,.8.4,1.8,1.8,0,0,1,.5.7,1.9,1.9,0,0,1,.2.8h-.8a.7.7,0,0,0-.1-.5l-.4-.5-.5-.3h-1.5l-.5.3c-.2.1-.3.2-.3.4s-.1.2-.1.4v.4l.3.4a.8.8,0,0,0,.6.2l.9.3,1.1.3.7.5a1.2,1.2,0,0,1,.5.5,1.9,1.9,0,0,1,.1.8,1.9,1.9,0,0,1-.2.7,1,1,0,0,1-.5.6,2,2,0,0,1-.8.4l-1,.2-1.2-.2-.8-.5a1.3,1.3,0,0,1-.5-.6,1.2,1.2,0,0,1-.2-.8h.7a6.4,6.4,0,0,0,.2.7l.5.4.6.3h1.4a.9.9,0,0,0,.6-.3l.3-.3A1.1,1.1,0,0,0,342.2,59.1Z"/><circle class="cls-2" cx="43" cy="41" r="40"/><path class="cls-3" d="M53.7,29.1h0a20.2,20.2,0,0,0-10.2-2.7h0a1.4,1.4,0,1,0-.3,2.7h.3a12.7,12.7,0,0,1,3.4.4c-4,1.9-8.4,6.3-12,12.4a46.3,46.3,0,0,0-3.5,7.9,17.3,17.3,0,0,1-3.9-7,5.9,5.9,0,0,1,.5-4.7h0c1.4-2.5,4.3-3.8,8.2-3.9a1.5,1.5,0,0,0,1.4-1.4h0a1.3,1.3,0,0,0-1.4-1.3h0c-4.8,0-8.5,1.9-10.5,5.1h0a9.5,9.5,0,0,0-.8,6.8,23,23,0,0,0,5.7,9.3,21.9,21.9,0,0,0-.4,5.7,18.9,18.9,0,0,1-3.6-6.1,1.2,1.2,0,0,0-1.6-1h0a1.2,1.2,0,0,0-.9,1.7h0a20,20,0,0,0,9.2,11.4h0A20.4,20.4,0,0,0,63.2,41.4a20.7,20.7,0,0,0-9.4-12.3ZM48.1,63.9a17.4,17.4,0,0,1-13.4-1.8h0c-1.6-.9-2.2-3.5-1.7-7.1a43.7,43.7,0,0,0,4.4,3.1,25.4,25.4,0,0,0,12.3,3.5,20.2,20.2,0,0,0,4.3-.5A15.3,15.3,0,0,1,48.1,63.9Zm10.8-8.3c-3.6,3.6-11.8,4.9-20.1.1a33.1,33.1,0,0,1-5.2-3.8,39.3,39.3,0,0,1,3.7-8.7c5.2-9.1,12.2-13.5,15.1-11.8h0A17.9,17.9,0,0,1,58.9,55.6Z"/><path class="cls-3" d="M22.4,33l-5.3-3a1.3,1.3,0,0,0-1.9.3,1.4,1.4,0,0,0,.3,1.9h.2l5.4,3,.7.2a1.2,1.2,0,0,0,1.1-.7A1.3,1.3,0,0,0,22.4,33Z"/><path class="cls-3" d="M29.8,25.7a1.4,1.4,0,0,0,1.2.7l.6-.2a1.3,1.3,0,0,0,.5-1.8L29,19.1a1.3,1.3,0,0,0-1.7-.5,1.3,1.3,0,0,0-.5,1.8Z"/><path class="cls-3" d="M43.5,23a1.4,1.4,0,0,0,1.4-1.4h0V15.4a1.3,1.3,0,0,0-1.4-1.3,1.3,1.3,0,0,0-1.3,1.3v6.2A1.3,1.3,0,0,0,43.5,23Z"/><path class="cls-3" d="M55.4,26.2a1.4,1.4,0,0,0,1.8-.5l3.1-5.4a1.3,1.3,0,0,0-.5-1.7A1.3,1.3,0,0,0,58,19l-3.1,5.4A1.4,1.4,0,0,0,55.4,26.2Z"/><path class="cls-3" d="M71.8,30.4a1.4,1.4,0,0,0-1.8-.5L64.7,33a1.4,1.4,0,0,0-.5,1.8,1.5,1.5,0,0,0,1.2.7l.7-.2,5.3-3.1A1.3,1.3,0,0,0,71.8,30.4Z"/></g></g></svg>